<?xml version="1.0" encoding="utf-8"?>
<!-- Generator: Adobe Adobe Illustrator 29.2.0, SVG Export Plug-In . SVG Version: 6.00 Build 0)  -->
<svg version="1.1" id="Layer_1" xmlns="http://www.w3.org/2000/svg" xmlns:xlink="http://www.w3.org/1999/xlink" x="0px" y="0px"
	 width="339px" height="56px" viewBox="0 0 339 56" style="enable-background:new 0 0 339 56;" xml:space="preserve">
<style type="text/css">
	.st0{stroke:#FFFFFF;stroke-width:5;stroke-miterlimit:10;}
	.st1{stroke:#000000;stroke-width:5;stroke-linejoin:round;stroke-miterlimit:10;}
	.st2{fill:#B02525;stroke:#FFFFFF;stroke-width:2;stroke-miterlimit:10;}
	.st3{stroke:#FFFFFF;stroke-width:0.25;stroke-miterlimit:10;}
	.st4{fill:#FFFFFF;stroke:#FFFFFF;stroke-width:0.25;stroke-miterlimit:10;}
	.st5{fill:#FFFFFF;}
</style>
<rect x="2.52" y="1.24" class="st1" width="334.66" height="52.48"/>
<g>
	<path class="st2" d="M10.16,18.3l-0.22-0.13L9.77,18l-0.04-0.31l-0.04-0.84l0.09-1.15V14.8l-0.04-0.84V12.8l0.13-0.84l0.09-0.31
		l0.09-0.23l0.13-0.13l0.3-0.09l0.91-0.13l1.34,0.18l0.95,0.04h0.94l0.65-0.09l1.65-0.09h0.95l1.29,0.04l0.95,0.04l0.95-0.04h3.21
		l1.34,0.13l0.95,0.04l1.6-0.04h0.82l0.74,0.09l1.56,0.4l1.47,0.54l0.77,0.23l0.77,0.31l1.38,0.62l1.38,0.84l1.22,1.02l1.04,1.15
		l0.95,1.33l0.43,0.67l0.48,0.62l0.77,1.42l0.25,0.75l0.22,0.8l0.34,1.64l0.09,1.6l-0.04,0.8v1.69l-0.04,1.64l-0.25,1.64l-0.52,1.56
		l-0.25,0.75l-0.52,1.6l-0.65,1.51l-0.48,0.67l-0.56,0.58l-1.17,1.15l-1.22,1.06l-1.34,0.93l-1.38,0.75l-2.3,0.8l-1.56,0.31
		l-3.21,0.54l-0.82,0.04h-0.95l-1.34,0.04l-1.9-0.04l-1.29,0.09h-1.9l-0.65-0.09l-2.56-0.09h-3.23l-0.65,0.09l-0.65,0.04l-0.95-0.09
		l-0.3-0.09l-0.22-0.13l-0.13-0.18l-0.09-0.31l-0.13-0.84l0.04-0.58l0.09-0.58l0.04-0.89l-0.09-0.84L9.6,38.21l-0.04-0.58l0.09-0.84
		l0.13-0.31l0.13-0.18l0.25-0.09l0.3-0.09l0.82-0.04l1.13,0.27l0.82-0.09l0.13-0.13l-0.04-0.18l-0.09-0.27L13.2,35.4l-0.04-0.98
		l-0.09-1.33l-0.04-1.91V27.9l0.04-1.33l0.04-0.98v-0.98l0.18-1.33l0.04-0.98v-0.98L13.29,20v-1.25l0.09-0.23v-0.18l-0.18-0.09
		l-0.77-0.09l-0.56,0.09l-0.61,0.13l-0.77-0.04L10.16,18.3z M21.94,35.18l-0.09,0.18v0.09l0.13,0.04l1.34,0.09l0.95,0.04h3.16
		l0.86-0.09l0.77-0.13l0.7-0.23l0.77-0.4l0.65-0.48l0.61-0.58l0.52-0.58l0.48-0.67l0.39-0.75l0.3-0.75l0.43-1.6l0.13-0.84l0.09-0.8
		l0.04-0.84l-0.04-0.84l-0.13-0.75l-0.18-0.75l-0.22-0.75l-0.25-0.75l-0.3-0.75l-0.34-0.67l-0.48-0.62l-0.52-0.58l-0.61-0.48
		l-0.7-0.44l-0.74-0.35l-0.7-0.18l-0.77-0.09l-0.82-0.04h-0.82l-1.38-0.04l-0.91-0.04l-0.95,0.04l-1.34,0.18l-0.13,0.04l0.09,0.09
		l0.13,0.18l0.04,0.23v1.56l-0.04,0.62v0.93l-0.04,0.93l-0.18,1.25l-0.04,0.93l0.04,0.89l0.04,1.29v4l0.04,0.93l0.04,1.25v0.93
		L21.94,35.18z"/>
	<path class="st2" d="M64.84,18.36l-0.09-0.54l-0.09-1.42l-0.04-1.42l-0.13-1.46l0.04-1.42l0.22-0.54l0.48-0.23l1.47-0.13l1.47,0.13
		h1.52l1.47-0.04l5.9,0.18l1.47-0.13L80,11.42l0.52,0.18l0.27,0.48l0.09,1.42l-0.09,1.46l0.09,1.46l-0.09,1.42l-0.22,0.54
		l-0.52,0.31l-1.13,0.04l-1.17-0.09l-0.48-0.23l-0.25,0.09l-0.09,1.73l0.18,1.77v1.77l-0.04,1.73l-0.09,3.55v1.73l-0.09,1.69
		l-0.36,1.75l-0.52,1.6l-0.77,1.56l-0.95,1.38l-1.13,1.19l-1.34,1.06l-1.34,0.98l-1.52,0.8l-1.56,0.58l-1.65,0.4l-1.65,0.13
		l-1.74,0.04l-1.74-0.09l-1.6-0.23l-1.69-0.4l-1.56-0.54l-1.56-0.75l-1.38-0.89l-1.34-1.02l-1.22-1.19l-0.82-1.46l-0.7-1.64
		l-0.43-1.6l-0.34-1.73l-0.18-1.69l-0.09-1.73v-3.29l-0.04-1.64l-0.04-1.6l0.13-1.64l-0.09-1.64l-0.25-0.4l-0.52-0.09l-1.13-0.09
		l-1.08-0.13l-0.39-0.23l-0.25-0.44v-0.27l0.09-0.31l-0.09-2.23l-0.09-2.27V12.4l0.09-0.31l0.25-0.35l0.39-0.13l1.47-0.31l1.47-0.04
		l2.94,0.09l1.47,0.09l1.52,0.13l2.94-0.27l1.47-0.04l1.47,0.18l0.56,0.18l0.22,0.48l0.13,1.33l-0.09,1.38l-0.04,1.38v1.33
		l-0.04,0.35l-0.18,0.31l-0.25,0.18l-0.25,0.09l-0.34-0.09h-2.12l-0.39-0.04l-0.22,0.23l-0.22,1.73L56.26,22l-0.04,1.77v5.23
		l0.25,1.91l0.52,1.6l0.77,1.69l1.17,1.25l1.56,0.58l1.86,0.18l1.81-0.23l1.56-0.62l1.22-1.15l0.86-1.6l0.3-1.6l0.04-1.91l0.18-3.29
		l-0.09-1.69l-0.04-1.64l0.18-3.29l0.09-0.35l-0.09-0.27h-3.16L64.84,18.36z"/>
	<path class="st2" d="M107.65,27.18l0.13,0.13l0.3,0.23h0.39l0.3-0.23l0.13-0.35l-0.13-0.89l-0.13-0.62l-0.22-1.51l-0.04-0.89v-0.84
		l0.09-3.11l0.09-0.27v-0.18l-1.6,0.04l-0.86,0.04l-0.65-0.13l-0.18-0.35l0.09-0.54l0.04-1.42l0.09-1.46l-0.04-1.46l0.18-1.42
		l0.04-0.27l0.09-0.18l0.43-0.18l1.74-0.18l1.81,0.09l3.55-0.09l1.78,0.09l1.78,0.04l1.78-0.04l1.78,0.13l0.43,0.13l0.18,0.44
		l0.09,1.42l-0.09,1.46l0.04,1.46l-0.13,1.42l-0.13,0.4l-0.18,0.09l-0.27,0.09l-1.08,0.18l-1.13,0.09l-0.52-0.04l-0.27,0.04
		l-0.04,0.13v1.69l0.22,1.73l-0.13,1.73l-0.09,1.69l0.13,1.69l0.13,1.73l-0.18,3.38v3.42l0.09,1.73l0.13,1.69l-0.3,3.37l-0.13,0.44
		l-0.43,0.13l-1.6,0.27l-1.65,0.04l-1.65-0.09l-1.6-0.18l-0.39,0.04l-0.25-0.09l-1-1.29l-0.95-1.29l-0.91-1.29l-0.95-1.33
		l-0.95-1.29l-0.95-1.25l-1-1.29l-0.95-1.25l-0.91-1.38l-0.86-1.33l-1.04-1.19l-1.04-1.25l-0.22-0.44l-0.18-0.44l-0.22-0.13
		l-0.3,0.04l-0.34,0.23v0.13l0.09,2.93l0.09,1.46l0.04,1.46l-0.18,2.48v0.35l0.27,0.18l2.69,0.18l0.25,0.23v0.44l0.04,1.42v1.46
		l0.13,1.46l-0.04,1.42l-0.27,0.54l-0.52,0.18l-1.78,0.04l-1.81-0.18l-3.6,0.18h-3.6l-1.78,0.09l-1.81-0.13l-0.52-0.23l-0.25-0.48
		l-0.04-1.42l0.18-1.46l-0.09-1.46l0.09-1.42l0.18-0.48l0.48-0.23l0.43-0.04l0.77,0.13l1.17,0.04l0.3-0.09l0.22-0.18l0.27-0.54
		l0.04-1.6l-0.13-1.64v-1.64l0.04-1.64l-0.04-1.64v-1.64l-0.04-1.6l-0.09-1.64l0.13-1.64l-0.13-1.6l-0.13-0.54l-0.18-0.18
		l-0.25-0.04h-1.17l-0.52,0.13l-0.7-0.09l-0.39-0.23l-0.13-0.48l-0.22-1.42l-0.04-1.46l-0.09-1.46l0.13-1.46l0.22-0.44l0.52-0.18
		l1.69-0.23h1.74l5.11,0.13l1.69,0.13h0.3l0.22,0.18l1.04,1.25l1,1.29l1.74,2.75l4.16,4.98l0.86,1.42l0.86,1.38l1.04,1.25l1,1.25
		L107.65,27.18z"/>
	<path class="st2" d="M139.88,18.13l-0.39,0.27h-0.48l-0.34-0.04l-0.82-0.13l-0.27,0.09l-0.22,0.23l-0.13,0.27v0.27l0.7,1.51
		l1.29,3.02l0.61,1.56l1.13,3.11l0.43,1.6l0.48,1.6l0.22,0.23l0.3,0.04l0.34-0.09l0.22-0.23l0.56-1.56l0.61-1.51l0.56-1.56
		l0.56-1.51l1.04-3.11l0.7-1.51l0.65-1.46l0.04-0.35l-0.13-0.31l-0.22-0.23l-0.3-0.09l-0.77,0.23l-0.34,0.09l-0.39-0.04l-0.39-0.18
		l-0.13-0.13l-0.27-0.54l-0.09-1.42l0.09-1.46l-0.04-1.46l0.18-1.42l0.22-0.54l0.48-0.27l1.43-0.04l1.52,0.18l2.9,0.18l0.86-0.04
		l0.61-0.13l0.86-0.18h1.34l0.74,0.13l0.86,0.13h0.56l0.7-0.04l0.82-0.18l0.74-0.09l0.7,0.09l0.43,0.27l0.18,0.58l0.18,1.42
		l-0.04,1.42l0.13,1.42l-0.04,1.46l-0.18,0.23l-0.3,0.23l-0.34,0.18l-0.39,0.09l-1.78,0.09l-0.3,0.09l-0.13,0.23l-0.39,0.54
		l-0.34,0.48l-0.65,1.42l-1.81,4.26l-1.13,2.93l-0.56,1.42l-0.61,1.42l-0.61,1.46l-0.61,1.42l-0.74,1.38l-0.7,1.38l-0.61,1.42
		l-0.56,1.46l-0.61,1.42l-0.61,1.46l-0.13,0.23l-0.3,0.31l-0.3,0.13l-0.34,0.09l-3.46,0.09l-1.69-0.09l-1.74-0.04l-0.39-0.04
		l-0.34-0.18l-0.3-0.23l-0.22-0.31l-0.7-1.51l-0.7-1.46l-0.52-1.56l-0.52-1.51l-0.65-1.51l-0.7-1.46l-0.65-1.46l-0.65-1.51
		l-1.38-2.93l-0.61-1.51l-0.56-1.56l-0.65-1.46l-0.65-1.51l-0.61-1.51l-0.7-1.46l-0.25-0.35l-0.39-0.18h-0.48l-0.61,0.23l-0.56,0.18
		l-0.56-0.04l-0.43-0.31l-0.18-0.58l-0.13-1.42l0.04-1.42L124,13.34l0.09-1.42l0.09-0.31l0.13-0.23l0.52-0.23l0.79-0.09l0.7,0.04
		l1.47,0.13l2.94-0.18l1.47,0.04h1.43l2.94,0.09h1.47l1.43,0.23l0.43,0.13l0.13,0.4l0.18,1.42v2.84l-0.22,1.38L139.88,18.13z"/>
	<path class="st2" d="M164.5,18.13l-0.27-0.58l0.04-1.42l0.13-1.42l-0.18-1.46l0.04-1.42l0.25-0.44l0.52-0.13l1.47-0.23h1.52
		l1.47,0.13l1.52,0.09l4.46-0.13h2.94l1.47,0.18l0.48,0.13l0.13,0.44l0.13,1.38l-0.09,1.46l0.09,1.42l-0.13,1.42l-0.13,0.54
		l-0.43,0.23l-1.17,0.13l-1.22-0.04l-0.34-0.18l-0.18,0.09l-0.18,1.69l0.13,1.69l-0.04,1.73v5.11l0.04,1.69l0.04,1.73l-0.04,1.69
		v1.73l-0.18,0.44l0.09,0.23l1.47,0.09l1.52,0.04l0.56,0.13l0.22,0.4l0.13,1.46l-0.04,1.46v1.42l-0.18,1.42l-0.18,0.48l-0.48,0.18
		l-1.47,0.09l-1.52-0.13l-1.47,0.04l-1.52,0.09h-1.47l-1.47,0.04H168l-1.52,0.09l-1.47-0.09l-0.52-0.27l-0.18-0.48l-0.09-1.46
		l0.13-1.42l-0.18-1.46l0.04-1.46l0.22-0.48l0.56-0.23l1.34,0.04h1.38l0.18-0.23l-0.04-0.44l0.04-1.73v-3.38l0.04-1.69l0.18-3.38
		l-0.13-1.73l-0.13-1.69l0.22-1.69v-1.73l-0.25-0.13l-0.52,0.13l-1.17,0.09l-1.17-0.09L164.5,18.13z"/>
	<path class="st2" d="M184.73,18.13l-0.27-0.58l0.04-1.42l0.13-1.42l-0.18-1.46l0.04-1.42l0.25-0.44l0.52-0.13l1.47-0.23h1.52
		l1.47,0.13l1.52,0.09l4.46-0.13h2.94l1.47,0.18l0.48,0.13l0.13,0.44l0.13,1.38l-0.09,1.46l0.09,1.42l-0.13,1.42l-0.13,0.54
		l-0.43,0.23l-1.17,0.13l-1.22-0.04l-0.34-0.18l-0.18,0.09l-0.18,1.69l0.13,1.69l-0.04,1.73v5.11l0.04,1.69l0.04,1.73l-0.04,1.69
		v1.73l-0.18,0.44l0.09,0.23l1.47,0.09l1.52,0.04l0.56,0.13l0.22,0.4l0.13,1.46l-0.04,1.46v1.42l-0.18,1.42l-0.18,0.48l-0.48,0.18
		l-1.47,0.09l-1.52-0.13l-1.47,0.04l-1.52,0.09h-1.47l-1.47,0.04h-2.99l-1.52,0.09l-1.47-0.09l-0.52-0.27l-0.18-0.48l-0.09-1.46
		l0.13-1.42l-0.18-1.46l0.04-1.46l0.22-0.48l0.56-0.23l1.34,0.04h1.38l0.18-0.23l-0.04-0.44l0.04-1.73v-3.38l0.04-1.69l0.18-3.38
		l-0.13-1.73l-0.13-1.69l0.22-1.69v-1.73l-0.25-0.13l-0.52,0.13l-1.17,0.09l-1.17-0.09L184.73,18.13z"/>
	<path class="st2" d="M205.31,18.3l-0.22-0.13L204.92,18l-0.04-0.31l-0.04-0.84l0.09-1.15V14.8l-0.04-0.84V12.8l0.13-0.84l0.09-0.31
		l0.09-0.23l0.13-0.13l0.3-0.09l0.91-0.13l1.34,0.18l0.95,0.04h0.95l0.65-0.09l1.65-0.09h0.95l1.31,0.04l0.95,0.04l0.95-0.04h3.21
		l1.34,0.13l0.95,0.04l1.6-0.04h0.82l0.74,0.09l1.56,0.4l1.47,0.54l0.77,0.23l0.77,0.31l1.38,0.62l1.38,0.84l1.22,1.02l1.04,1.15
		l0.95,1.33l0.43,0.67l0.48,0.62l0.77,1.42l0.27,0.75l0.22,0.8l0.34,1.64l0.09,1.6l-0.04,0.8v1.69l-0.04,1.64l-0.25,1.64l-0.52,1.56
		l-0.25,0.75l-0.52,1.6l-0.65,1.51l-0.48,0.67l-0.56,0.58l-1.17,1.15l-1.22,1.06l-1.34,0.93l-1.38,0.75l-2.3,0.8l-1.56,0.31
		l-3.21,0.54l-0.82,0.04h-0.95l-1.34,0.04l-1.9-0.04l-1.31,0.09h-1.9l-0.65-0.09l-2.56-0.09h-3.25l-0.65,0.09l-0.65,0.04l-0.95-0.09
		l-0.3-0.09l-0.22-0.13l-0.13-0.18l-0.09-0.31l-0.13-0.84l0.04-0.58l0.09-0.58l0.04-0.89l-0.09-0.84l-0.09-0.62l-0.04-0.58
		l0.09-0.84l0.13-0.31l0.13-0.18l0.25-0.09l0.3-0.09l0.82-0.04l1.13,0.27l0.82-0.09l0.13-0.13l-0.04-0.18l-0.09-0.27l-0.04-0.27
		l-0.04-0.98l-0.09-1.33l-0.04-1.91V27.9l0.04-1.33l0.04-0.98v-0.98l0.18-1.33l0.04-0.98v-0.98L208.46,20v-1.25l0.09-0.23v-0.18
		l-0.18-0.09l-0.77-0.09l-0.56,0.09l-0.61,0.13l-0.77-0.04L205.31,18.3z M217.09,35.18l-0.09,0.18v0.09l0.13,0.04l1.34,0.09
		l0.95,0.04h3.16l0.86-0.09l0.77-0.13l0.7-0.23l0.77-0.4l0.65-0.48l0.61-0.58l0.52-0.58l0.48-0.67l0.39-0.75l0.3-0.75l0.43-1.6
		l0.13-0.84l0.09-0.8l0.04-0.84l-0.04-0.84l-0.13-0.75l-0.18-0.75l-0.22-0.75l-0.27-0.75l-0.3-0.75l-0.34-0.67l-0.48-0.62
		l-0.52-0.58l-0.61-0.48l-0.7-0.44l-0.74-0.35l-0.7-0.18l-0.77-0.09l-0.82-0.04h-0.82l-1.38-0.04l-0.91-0.04l-0.95,0.04l-1.34,0.18
		l-0.13,0.04l0.09,0.09l0.13,0.18l0.04,0.23v1.56l-0.04,0.62v0.93l-0.04,0.93l-0.18,1.25l-0.04,0.93l0.04,0.89l0.04,1.29v4
		l0.04,0.93l0.04,1.25v0.93V35.18z"/>
	<path class="st2" d="M246.25,43.12l-0.22-0.09l-0.13-0.18l-0.09-0.31v-1.42l0.04-1.46l-0.09-1.42l0.13-1.46l0.04-0.31l0.13-0.23
		l0.22-0.23l0.22-0.09l0.61-0.04l0.61,0.13l1.22,0.04l0.3-0.04l0.22-0.13l0.22-0.18l0.09-0.27l0.13-1.64l-0.18-0.89l-0.48-1.46
		l-0.34-0.67l-0.95-1.33l-0.86-1.33l-0.86-1.38l-1.9-2.58l-0.91-1.33l-0.86-1.33l-0.91-1.29l-0.95-1.33l-0.3-0.35l-0.22-0.09
		l-0.22-0.04h-0.43l-0.61-0.04l-1-0.18l-0.56-0.13l-0.22-0.18l-0.09-0.23l-0.09-0.75v-0.67l0.09-1.46l-0.09-1.42l0.13-1.46
		l0.09-0.27l0.18-0.18l0.3-0.09l0.22-0.04l1.17-0.13l0.61,0.04l1.78,0.09l3.51,0.09l1.78-0.09l3.55-0.27l0.95-0.04l0.82,0.13
		l0.3,0.09l0.13,0.13l0.13,0.35l0.04,0.23l0.22,1.6l-0.04,1.6l0.13,1.64l-0.18,1.6l-0.34,0.13l-0.3-0.13l-0.27-0.04l-0.34,0.13
		l-0.22,0.23l-0.09,0.31l0.09,0.35l0.95,1.6l0.95,1.56l0.3,0.48l0.3,0.23h0.43l0.34-0.27l0.3-0.4l0.95-1.64l0.95-1.69l0.09-0.31
		l-0.04-0.23l-0.18-0.18l-0.3-0.09l-0.56,0.13l-0.3-0.23l-0.18-0.67l-0.09-0.89l0.09-1.64v-1.6l0.27-1.6l0.13-0.44l0.22-0.13
		l0.22-0.04l1.74-0.23l1.78,0.04h3.51l3.55,0.09l1.74-0.04l1.78,0.13l0.22,0.04l0.22,0.09l0.18,0.31l0.04,0.18l0.09,0.71l-0.04,0.71
		l-0.13,1.42l0.13,1.46l-0.09,1.38l-0.04,0.23l-0.13,0.31l-0.18,0.13l-0.25,0.09l-0.52,0.13l-0.56,0.04l-1.08-0.04h-0.48l-0.39,0.23
		L267,19l-0.65,1.06l-0.82,1.38l-0.86,1.29l-0.86,1.33l-0.82,1.33l-0.77,1.38l-1,1.25l-0.95,1.25l-1.47,2.84l-0.13,0.23l-0.09,0.27
		l-0.04,1.38l-0.04,1.33l0.09,0.31l0.18,0.27l0.27,0.18l0.3,0.09l1.13-0.13l1.08,0.09l0.27,0.09l0.22,0.13l0.18,0.23l0.04,0.27
		l0.09,1.42l-0.13,1.46l0.09,1.46l-0.09,1.42l-0.04,0.18l-0.13,0.31l-0.27,0.13l-0.22,0.04l-1.47,0.18l-1.52-0.04l-2.99-0.27
		l-1.47,0.04l-1.52,0.09l-2.99-0.09l-1.52,0.18h-0.61l-0.86-0.09L246.25,43.12z"/>
</g>
<path class="st3" d="M277.33,43.69V11.28c0-1.96,1.88-3.56,4.19-3.56h44.96c2.31,0,4.19,1.59,4.19,3.56v32.41
	c0,1.96-1.88,3.56-4.19,3.56h-44.96C279.2,47.25,277.33,45.65,277.33,43.69z"/>
<path class="st4" d="M326.47,7.73c2.31,0,4.19,1.61,4.19,3.6v32.79c0,1.99-1.88,3.6-4.19,3.6h-44.96c-2.31,0-4.19-1.61-4.19-3.6
	V11.32c0-1.99,1.88-3.6,4.19-3.6L326.47,7.73L326.47,7.73z M326.47,6.97h-44.96c-2.79,0-5.06,1.95-5.06,4.35v32.79
	c0,2.4,2.27,4.35,5.06,4.35h44.96c2.79,0,5.06-1.95,5.06-4.35V11.32C331.54,8.93,329.27,6.97,326.47,6.97L326.47,6.97z"/>
<g>
	<path class="st5" d="M278.9,26.47v-4.03c0-0.25,0.24-0.44,0.52-0.44h4.18c0.29,0,0.52,0.2,0.52,0.44v4.03
		c0,0.25-0.24,0.44-0.52,0.44h-4.18C279.13,26.91,278.9,26.71,278.9,26.47z"/>
	<g>
		<path class="st5" d="M283.59,21.99c0.29,0,0.52,0.2,0.52,0.44v4.03c0,0.25-0.24,0.44-0.52,0.44h-4.18c-0.29,0-0.52-0.2-0.52-0.44
			v-4.03c0-0.25,0.24-0.44,0.52-0.44H283.59L283.59,21.99z M283.59,21.25h-4.18c-0.77,0-1.39,0.54-1.39,1.18v4.03
			c0,0.65,0.63,1.18,1.39,1.18h4.18c0.77,0,1.39-0.54,1.39-1.18v-4.03C284.99,21.79,284.36,21.25,283.59,21.25L283.59,21.25z"/>
	</g>
</g>
<g>
	<path class="st5" d="M278.9,36.47v-4.03c0-0.25,0.24-0.44,0.52-0.44h4.18c0.29,0,0.52,0.2,0.52,0.44v4.03
		c0,0.25-0.24,0.44-0.52,0.44h-4.18C279.13,36.91,278.9,36.71,278.9,36.47z"/>
	<g>
		<path class="st5" d="M283.59,32c0.29,0,0.52,0.2,0.52,0.44v4.03c0,0.25-0.24,0.44-0.52,0.44h-4.18c-0.29,0-0.52-0.2-0.52-0.44
			v-4.03c0-0.25,0.24-0.44,0.52-0.44H283.59L283.59,32z M283.59,31.26h-4.18c-0.77,0-1.39,0.54-1.39,1.18v4.03
			c0,0.65,0.63,1.18,1.39,1.18h4.18c0.77,0,1.39-0.54,1.39-1.18v-4.03C284.99,31.79,284.36,31.26,283.59,31.26L283.59,31.26z"/>
	</g>
</g>
<g>
	<path class="st5" d="M278.9,45.3v-4.03c0-0.25,0.24-0.44,0.52-0.44h4.18c0.29,0,0.52,0.2,0.52,0.44v4.03
		c0,0.25-0.24,0.44-0.52,0.44h-4.18C279.13,45.74,278.9,45.54,278.9,45.3z"/>
	<g>
		<path class="st5" d="M283.59,40.82c0.29,0,0.52,0.2,0.52,0.44v4.03c0,0.25-0.24,0.44-0.52,0.44h-4.18c-0.29,0-0.52-0.2-0.52-0.44
			v-4.03c0-0.25,0.24-0.44,0.52-0.44H283.59L283.59,40.82z M283.59,40.08h-4.18c-0.77,0-1.39,0.54-1.39,1.18v4.03
			c0,0.65,0.63,1.18,1.39,1.18h4.18c0.77,0,1.39-0.54,1.39-1.18v-4.03C284.99,40.62,284.36,40.08,283.59,40.08L283.59,40.08z"/>
	</g>
</g>
<g>
	<path class="st5" d="M322.33,26.47v-4.03c0-0.25,0.24-0.44,0.52-0.44h4.18c0.29,0,0.52,0.2,0.52,0.44v4.03
		c0,0.25-0.24,0.44-0.52,0.44h-4.18C322.56,26.91,322.33,26.71,322.33,26.47z"/>
	<g>
		<path class="st5" d="M327.03,21.99c0.29,0,0.52,0.2,0.52,0.44v4.03c0,0.25-0.24,0.44-0.52,0.44h-4.18c-0.29,0-0.52-0.2-0.52-0.44
			v-4.03c0-0.25,0.24-0.44,0.52-0.44H327.03L327.03,21.99z M327.03,21.25h-4.18c-0.77,0-1.39,0.54-1.39,1.18v4.03
			c0,0.65,0.63,1.18,1.39,1.18h4.18c0.77,0,1.39-0.54,1.39-1.18v-4.03C328.43,21.79,327.8,21.25,327.03,21.25L327.03,21.25z"/>
	</g>
</g>
<g>
	<path class="st5" d="M322.33,36.47v-4.03c0-0.25,0.24-0.44,0.52-0.44h4.18c0.29,0,0.52,0.2,0.52,0.44v4.03
		c0,0.25-0.24,0.44-0.52,0.44h-4.18C322.56,36.91,322.33,36.71,322.33,36.47z"/>
	<g>
		<path class="st5" d="M327.03,32c0.29,0,0.52,0.2,0.52,0.44v4.03c0,0.25-0.24,0.44-0.52,0.44h-4.18c-0.29,0-0.52-0.2-0.52-0.44
			v-4.03c0-0.25,0.24-0.44,0.52-0.44H327.03L327.03,32z M327.03,31.26h-4.18c-0.77,0-1.39,0.54-1.39,1.18v4.03
			c0,0.65,0.63,1.18,1.39,1.18h4.18c0.77,0,1.39-0.54,1.39-1.18v-4.03C328.43,31.79,327.8,31.26,327.03,31.26L327.03,31.26z"/>
	</g>
</g>
<g>
	<path class="st5" d="M322.33,45.3v-4.03c0-0.25,0.24-0.44,0.52-0.44h4.18c0.29,0,0.52,0.2,0.52,0.44v4.03
		c0,0.25-0.24,0.44-0.52,0.44h-4.18C322.56,45.74,322.33,45.54,322.33,45.3z"/>
	<g>
		<path class="st5" d="M327.03,40.82c0.29,0,0.52,0.2,0.52,0.44v4.03c0,0.25-0.24,0.44-0.52,0.44h-4.18c-0.29,0-0.52-0.2-0.52-0.44
			v-4.03c0-0.25,0.24-0.44,0.52-0.44H327.03L327.03,40.82z M327.03,40.08h-4.18c-0.77,0-1.39,0.54-1.39,1.18v4.03
			c0,0.65,0.63,1.18,1.39,1.18h4.18c0.77,0,1.39-0.54,1.39-1.18v-4.03C328.43,40.62,327.8,40.08,327.03,40.08L327.03,40.08z"/>
	</g>
</g>
<g>
	<path class="st5" d="M322.33,17.2v-4.03c0-0.25,0.24-0.44,0.52-0.44h4.18c0.29,0,0.52,0.2,0.52,0.44v4.03
		c0,0.25-0.24,0.44-0.52,0.44h-4.18C322.56,17.64,322.33,17.44,322.33,17.2z"/>
	<g>
		<path class="st5" d="M327.03,12.72c0.29,0,0.52,0.2,0.52,0.44v4.03c0,0.25-0.24,0.44-0.52,0.44h-4.18c-0.29,0-0.52-0.2-0.52-0.44
			v-4.03c0-0.25,0.24-0.44,0.52-0.44H327.03L327.03,12.72z M327.03,11.98h-4.18c-0.77,0-1.39,0.54-1.39,1.18v4.03
			c0,0.65,0.63,1.18,1.39,1.18h4.18c0.77,0,1.39-0.54,1.39-1.18v-4.03C328.43,12.52,327.8,11.98,327.03,11.98L327.03,11.98z"/>
	</g>
</g>
<g>
	<path class="st5" d="M278.76,17.2v-4.03c0-0.25,0.24-0.44,0.52-0.44h4.18c0.29,0,0.52,0.2,0.52,0.44v4.03
		c0,0.25-0.24,0.44-0.52,0.44h-4.18C278.99,17.64,278.76,17.44,278.76,17.2z"/>
	<g>
		<path class="st5" d="M283.46,12.72c0.29,0,0.52,0.2,0.52,0.44v4.03c0,0.25-0.24,0.44-0.52,0.44h-4.18c-0.29,0-0.52-0.2-0.52-0.44
			v-4.03c0-0.25,0.24-0.44,0.52-0.44H283.46L283.46,12.72z M283.46,11.98h-4.18c-0.77,0-1.39,0.54-1.39,1.18v4.03
			c0,0.65,0.63,1.18,1.39,1.18h4.18c0.77,0,1.39-0.54,1.39-1.18v-4.03C284.85,12.52,284.23,11.98,283.46,11.98L283.46,11.98z"/>
	</g>
</g>
<g>
	<path class="st5" d="M296.52,20.91L296.76,34c0.02,0.97,1.28,1.54,2.23,1.02l13.27-7.25c0.95-0.51,0.87-1.7-0.13-2.14l-13.52-5.83
		C297.66,19.37,296.5,19.98,296.52,20.91z"/>
	<path class="st5" d="M300.98,24.97l4.63,1.99l-4.55,2.48L300.98,24.97L300.98,24.97z M297.97,19.65c-0.77,0-1.46,0.53-1.45,1.25
		l0.25,13.09c0.02,0.71,0.71,1.21,1.45,1.21c0.26,0,0.53-0.06,0.78-0.2l13.27-7.25c0.95-0.51,0.87-1.7-0.13-2.14l-13.52-5.83
		C298.41,19.7,298.19,19.65,297.97,19.65L297.97,19.65z"/>
</g>
</svg>
