<?xml version="1.0" encoding="utf-8"?>
<!-- Generator: Adobe Adobe Illustrator 29.2.0, SVG Export Plug-In . SVG Version: 6.00 Build 0)  -->
<svg version="1.1" id="Layer_1" xmlns="http://www.w3.org/2000/svg" xmlns:xlink="http://www.w3.org/1999/xlink" x="0px" y="0px" viewBox="0 0 339 56" style="enable-background:new 0 0 339 56;" xml:space="preserve">
	 xmlns="http://www.w3.org/2000/svg" xmlns:xlink="http://www.w3.org/1999/xlink" x="0px" y="0px" viewBox="0 0 339 56"
	 style="enable-background:new 0 0 339 56;" xml:space="preserve">
<style type="text/css">
	.st0{stroke:#FFFFFF;stroke-width:5;stroke-miterlimit:10;}
	.st1{fill:#B02525;stroke:#000000;stroke-width:5;stroke-linejoin:round;stroke-miterlimit:10;}
	.st2{stroke:#FFFFFF;stroke-width:2;stroke-miterlimit:10;}
	.st3{fill:#FFFFFF;}
</style>
<path class="st0" d="M3.9,16.9"/>
<rect x="1.5" y="1.5" class="st1" width="334.7" height="52.5"/>
<g>
	<path class="st2" d="M9.1,18.6l-0.2-0.1l-0.2-0.2l0-0.3l0-0.8l0.1-1.2v-0.9l0-0.8v-1.2l0.1-0.8l0.1-0.3L9,11.7l0.1-0.1l0.3-0.1
		l0.9-0.1l1.3,0.2l1,0h0.9l0.6-0.1l1.6-0.1h1l1.3,0l1,0l1,0h3.2l1.3,0.1l1,0l1.6,0H28l0.7,0.1l1.6,0.4l1.5,0.5l0.8,0.2l0.8,0.3
		l1.4,0.6l1.4,0.8l1.2,1l1,1.2l1,1.3l0.4,0.7l0.5,0.6l0.8,1.4l0.3,0.8l0.2,0.8l0.3,1.6l0.1,1.6l0,0.8V28l0,1.6l-0.3,1.6L41,32.9
		l-0.3,0.8l-0.5,1.6l-0.6,1.5l-0.5,0.7L38.5,38l-1.2,1.2l-1.2,1.1l-1.3,0.9l-1.4,0.8l-2.3,0.8L29.6,43l-3.2,0.5l-0.8,0h-1l-1.3,0
		l-1.9,0L20,43.7h-1.9l-0.6-0.1l-2.6-0.1h-3.2l-0.6,0.1l-0.6,0l-1-0.1l-0.3-0.1l-0.2-0.1l-0.1-0.2l-0.1-0.3L8.6,42l0-0.6l0.1-0.6
		l0-0.9l-0.1-0.8l-0.1-0.6l0-0.6L8.6,37l0.1-0.3l0.1-0.2l0.3-0.1l0.3-0.1l0.8,0l1.1,0.3l0.8-0.1l0.1-0.1l0-0.2l-0.1-0.3l0-0.3l0-1
		l-0.1-1.3l0-1.9v-3.3l0-1.3l0-1v-1l0.2-1.3l0-1v-1l0-1.3V19l0.1-0.2v-0.2l-0.2-0.1l-0.8-0.1l-0.6,0.1l-0.6,0.1l-0.8,0L9.1,18.6z
		 M20.9,35.4l-0.1,0.2v0.1l0.1,0l1.3,0.1l1,0h3.2l0.9-0.1l0.8-0.1l0.7-0.2l0.8-0.4l0.6-0.5l0.6-0.6l0.5-0.6l0.5-0.7l0.4-0.8l0.3-0.8
		l0.4-1.6l0.1-0.8l0.1-0.8l0-0.8l0-0.8L33,25.5l-0.2-0.8L32.6,24l-0.3-0.8L32,22.5l-0.3-0.7l-0.5-0.6l-0.5-0.6l-0.6-0.5l-0.7-0.4
		l-0.7-0.4L28,19.2l-0.8-0.1l-0.8,0h-0.8l-1.4,0l-0.9,0l-1,0l-1.3,0.2l-0.1,0l0.1,0.1l0.1,0.2l0,0.2v1.6l0,0.6v0.9l0,0.9L20.8,25
		l0,0.9l0,0.9l0,1.3v4l0,0.9l0,1.2v0.9L20.9,35.4z"/>
	<path class="st2" d="M63.8,18.6l-0.1-0.5l-0.1-1.4l0-1.4l-0.1-1.5l0-1.4l0.2-0.5l0.5-0.2l1.5-0.1l1.5,0.1h1.5l1.5,0l5.9,0.2
		l1.5-0.1l1.5,0.1l0.5,0.2l0.3,0.5l0.1,1.4l-0.1,1.5l0.1,1.5l-0.1,1.4l-0.2,0.5L79,19l-1.1,0l-1.2-0.1l-0.5-0.2L76,18.8l-0.1,1.7
		l0.2,1.8V24l0,1.7L76,29.3v1.7l-0.1,1.7l-0.4,1.8L75,36.1l-0.8,1.6l-1,1.4l-1.1,1.2l-1.3,1.1l-1.3,1l-1.5,0.8l-1.6,0.6L64.7,44
		l-1.6,0.1l-1.7,0l-1.7-0.1L58,43.9l-1.7-0.4L54.8,43l-1.6-0.8l-1.4-0.9l-1.3-1l-1.2-1.2l-0.8-1.5L47.7,36l-0.4-1.6L47,32.7L46.8,31
		l-0.1-1.7V26l0-1.6l0-1.6l0.1-1.6l-0.1-1.6l-0.3-0.4L45.9,19l-1.1-0.1l-1.1-0.1l-0.4-0.2L43,18.1v-0.3l0.1-0.3L43,15.3L42.9,13
		v-0.4l0.1-0.3l0.3-0.4l0.4-0.1l1.5-0.3l1.5,0l2.9,0.1l1.5,0.1l1.5,0.1l2.9-0.3l1.5,0l1.5,0.2l0.6,0.2l0.2,0.5l0.1,1.3l-0.1,1.4
		l0,1.4v1.3l0,0.4L59,18.4l-0.3,0.2l-0.3,0.1l-0.3-0.1H56l-0.4,0l-0.2,0.2l-0.2,1.7l0,1.7l0,1.8v5.2l0.3,1.9l0.5,1.6l0.8,1.7
		l1.2,1.2l1.6,0.6l1.9,0.2l1.8-0.2l1.6-0.6l1.2-1.2l0.9-1.6l0.3-1.6l0-1.9l0.2-3.3l-0.1-1.7l0-1.6l0.2-3.3l0.1-0.4l-0.1-0.3h-3.2
		L63.8,18.6z"/>
	<path class="st2" d="M106.6,27.4l0.1,0.1l0.3,0.2h0.4l0.3-0.2l0.1-0.4l-0.1-0.9l-0.1-0.6l-0.2-1.5l0-0.9v-0.8l0.1-3.1l0.1-0.3v-0.2
		l-1.6,0l-0.9,0l-0.6-0.1l-0.2-0.4l0.1-0.5l0-1.4l0.1-1.5l0-1.5l0.2-1.4l0-0.3l0.1-0.2l0.4-0.2l1.7-0.2l1.8,0.1l3.6-0.1l1.8,0.1
		l1.8,0l1.8,0l1.8,0.1l0.4,0.1l0.2,0.4l0.1,1.4l-0.1,1.5l0,1.5l-0.1,1.4l-0.1,0.4l-0.2,0.1l-0.3,0.1l-1.1,0.2l-1.1,0.1l-0.5,0
		l-0.3,0l0,0.1v1.7l0.2,1.7l-0.1,1.7l-0.1,1.7l0.1,1.7l0.1,1.7l-0.2,3.4V36l0.1,1.7l0.1,1.7l-0.3,3.4l-0.1,0.4l-0.4,0.1l-1.6,0.3
		l-1.6,0l-1.6-0.1l-1.6-0.2l-0.4,0l-0.3-0.1l-1-1.3l-1-1.3l-0.9-1.3l-1-1.3l-1-1.3l-1-1.2l-1-1.3l-1-1.2l-0.9-1.4l-0.9-1.3l-1-1.2
		l-1-1.2l-0.2-0.4l-0.2-0.4L96.5,27l-0.3,0l-0.3,0.2v0.1l0.1,2.9l0.1,1.5l0,1.5l-0.2,2.5v0.4l0.3,0.2l2.7,0.2l0.3,0.2v0.4l0,1.4V40
		l0.1,1.5l0,1.4l-0.3,0.5l-0.5,0.2l-1.8,0l-1.8-0.2l-3.6,0.2h-3.6l-1.8,0.1L84,43.6l-0.5-0.2l-0.3-0.5l0-1.4l0.2-1.5l-0.1-1.5
		l0.1-1.4l0.2-0.5l0.5-0.2l0.4,0l0.8,0.1l1.2,0l0.3-0.1l0.2-0.2l0.3-0.5l0-1.6l-0.1-1.6v-1.6l0-1.6l0-1.6v-1.6l0-1.6L87,22.7
		l0.1-1.6L87,19.4l-0.1-0.5l-0.2-0.2l-0.3,0h-1.2l-0.5,0.1L84,18.7l-0.4-0.2L83.5,18l-0.2-1.4l0-1.5l-0.1-1.5l0.1-1.5l0.2-0.4
		l0.5-0.2l1.7-0.2h1.7l5.1,0.1l1.7,0.1h0.3l0.2,0.2l1,1.2l1,1.3l1.7,2.8l4.2,5l0.9,1.4l0.9,1.4l1,1.2l1,1.2L106.6,27.4z"/>
	<path class="st2" d="M138.9,18.4l-0.4,0.3H138l-0.3,0l-0.8-0.1l-0.3,0.1l-0.2,0.2l-0.1,0.3v0.3l0.7,1.5l1.3,3l0.6,1.6l1.1,3.1
		l0.4,1.6l0.5,1.6l0.2,0.2l0.3,0l0.3-0.1l0.2-0.2l0.6-1.6l0.6-1.5l0.6-1.6l0.6-1.5l1-3.1l0.7-1.5l0.6-1.5l0-0.4l-0.1-0.3l-0.2-0.2
		l-0.3-0.1l-0.8,0.2l-0.3,0.1l-0.4,0l-0.4-0.2l-0.1-0.1l-0.3-0.5l-0.1-1.4l0.1-1.5l0-1.5l0.2-1.4l0.2-0.5l0.5-0.3l1.4,0l1.5,0.2
		l2.9,0.2l0.9,0l0.6-0.1l0.9-0.2h1.3l0.7,0.1l0.9,0.1h0.6l0.7,0l0.8-0.2l0.7-0.1l0.7,0.1l0.4,0.3l0.2,0.6l0.2,1.4l0,1.4l0.1,1.4
		l0,1.5l-0.2,0.2l-0.3,0.2l-0.3,0.2l-0.4,0.1l-1.8,0.1l-0.3,0.1l-0.1,0.2l-0.4,0.5l-0.3,0.5l-0.6,1.4l-1.8,4.3l-1.1,2.9l-0.6,1.4
		l-0.6,1.4l-0.6,1.5l-0.6,1.4l-0.7,1.4l-0.7,1.4l-0.6,1.4l-0.6,1.5l-0.6,1.4l-0.6,1.5l-0.1,0.2l-0.3,0.3l-0.3,0.1l-0.3,0.1l-3.5,0.1
		l-1.7-0.1l-1.7,0l-0.4,0l-0.3-0.2l-0.3-0.2l-0.2-0.3l-0.7-1.5l-0.7-1.5l-0.5-1.6l-0.5-1.5l-0.6-1.5l-0.7-1.5l-0.6-1.5l-0.6-1.5
		l-1.4-2.9l-0.6-1.5l-0.6-1.6l-0.6-1.5l-0.6-1.5l-0.6-1.5l-0.7-1.5l-0.3-0.4l-0.4-0.2h-0.5l-0.6,0.2l-0.6,0.2l-0.6,0l-0.4-0.3
		l-0.2-0.6l-0.1-1.4l0-1.4l-0.1-1.5l0.1-1.4l0.1-0.3l0.1-0.2l0.5-0.2l0.8-0.1l0.7,0l1.5,0.1l2.9-0.2l1.5,0h1.4l2.9,0.1h1.5l1.4,0.2
		l0.4,0.1l0.1,0.4l0.2,1.4v2.8l-0.2,1.4L138.9,18.4z"/>
	<path class="st2" d="M163.5,18.4l-0.3-0.6l0-1.4l0.1-1.4l-0.2-1.5l0-1.4l0.3-0.4l0.5-0.1l1.5-0.2h1.5l1.5,0.1l1.5,0.1l4.5-0.1h2.9
		l1.5,0.2l0.5,0.1l0.1,0.4l0.1,1.4l-0.1,1.5l0.1,1.4l-0.1,1.4l-0.1,0.5l-0.4,0.2l-1.2,0.1l-1.2,0l-0.3-0.2l-0.2,0.1l-0.2,1.7L176,22
		l0,1.7v5.1l0,1.7l0,1.7l0,1.7v1.7l-0.2,0.4l0.1,0.2l1.5,0.1l1.5,0l0.6,0.1l0.2,0.4l0.1,1.5l0,1.5v1.4l-0.2,1.4l-0.2,0.5l-0.5,0.2
		l-1.5,0.1l-1.5-0.1l-1.5,0l-1.5,0.1h-1.5l-1.5,0h-3l-1.5,0.1l-1.5-0.1l-0.5-0.3l-0.2-0.5l-0.1-1.5l0.1-1.4l-0.2-1.5l0-1.5l0.2-0.5
		l0.6-0.2l1.3,0h1.4l0.2-0.2l0-0.4l0-1.7v-3.4l0-1.7l0.2-3.4l-0.1-1.7l-0.1-1.7l0.2-1.7v-1.7l-0.3-0.1l-0.5,0.1l-1.2,0.1l-1.2-0.1
		L163.5,18.4z"/>
	<path class="st2" d="M183.7,18.4l-0.3-0.6l0-1.4l0.1-1.4l-0.2-1.5l0-1.4l0.3-0.4l0.5-0.1l1.5-0.2h1.5l1.5,0.1l1.5,0.1l4.5-0.1h2.9
		l1.5,0.2l0.5,0.1l0.1,0.4l0.1,1.4l-0.1,1.5l0.1,1.4l-0.1,1.4l-0.1,0.5l-0.4,0.2l-1.2,0.1l-1.2,0l-0.3-0.2l-0.2,0.1l-0.2,1.7
		l0.1,1.7l0,1.7v5.1l0,1.7l0,1.7l0,1.7v1.7l-0.2,0.4l0.1,0.2l1.5,0.1l1.5,0l0.6,0.1l0.2,0.4l0.1,1.5l0,1.5v1.4l-0.2,1.4l-0.2,0.5
		l-0.5,0.2l-1.5,0.1l-1.5-0.1l-1.5,0l-1.5,0.1h-1.5l-1.5,0h-3l-1.5,0.1l-1.5-0.1l-0.5-0.3l-0.2-0.5l-0.1-1.5l0.1-1.4l-0.2-1.5l0-1.5
		l0.2-0.5l0.6-0.2l1.3,0h1.4l0.2-0.2l0-0.4l0-1.7v-3.4l0-1.7l0.2-3.4l-0.1-1.7l-0.1-1.7l0.2-1.7v-1.7l-0.3-0.1l-0.5,0.1l-1.2,0.1
		l-1.2-0.1L183.7,18.4z"/>
	<path class="st2" d="M204.3,18.6l-0.2-0.1l-0.2-0.2l0-0.3l0-0.8l0.1-1.2v-0.9l0-0.8v-1.2l0.1-0.8l0.1-0.3l0.1-0.2l0.1-0.1l0.3-0.1
		l0.9-0.1l1.3,0.2l1,0h1l0.6-0.1l1.6-0.1h1l1.3,0l1,0l1,0h3.2l1.3,0.1l1,0l1.6,0h0.8l0.7,0.1l1.6,0.4l1.5,0.5l0.8,0.2l0.8,0.3
		l1.4,0.6l1.4,0.8l1.2,1l1,1.2l1,1.3l0.4,0.7l0.5,0.6l0.8,1.4l0.3,0.8l0.2,0.8l0.3,1.6l0.1,1.6l0,0.8V28l0,1.6l-0.3,1.6l-0.5,1.6
		l-0.3,0.8l-0.5,1.6l-0.6,1.5l-0.5,0.7l-0.6,0.6l-1.2,1.2l-1.2,1.1l-1.3,0.9l-1.4,0.8l-2.3,0.8l-1.6,0.3l-3.2,0.5l-0.8,0h-1l-1.3,0
		l-1.9,0l-1.3,0.1h-1.9l-0.6-0.1l-2.6-0.1h-3.2l-0.6,0.1l-0.6,0l-1-0.1l-0.3-0.1l-0.2-0.1l-0.1-0.2l-0.1-0.3l-0.1-0.8l0-0.6l0.1-0.6
		l0-0.9l-0.1-0.8l-0.1-0.6l0-0.6l0.1-0.8l0.1-0.3l0.1-0.2l0.3-0.1l0.3-0.1l0.8,0l1.1,0.3l0.8-0.1l0.1-0.1l0-0.2l-0.1-0.3l0-0.3l0-1
		l-0.1-1.3l0-1.9v-3.3l0-1.3l0-1v-1l0.2-1.3l0-1v-1l0-1.3V19l0.1-0.2v-0.2l-0.2-0.1l-0.8-0.1l-0.6,0.1l-0.6,0.1l-0.8,0L204.3,18.6z
		 M216.1,35.4l-0.1,0.2v0.1l0.1,0l1.3,0.1l1,0h3.2l0.9-0.1l0.8-0.1l0.7-0.2l0.8-0.4l0.6-0.5l0.6-0.6l0.5-0.6l0.5-0.7l0.4-0.8
		l0.3-0.8l0.4-1.6l0.1-0.8l0.1-0.8l0-0.8l0-0.8l-0.1-0.8l-0.2-0.8l-0.2-0.8l-0.3-0.8l-0.3-0.8l-0.3-0.7l-0.5-0.6l-0.5-0.6l-0.6-0.5
		l-0.7-0.4l-0.7-0.4l-0.7-0.2l-0.8-0.1l-0.8,0h-0.8l-1.4,0l-0.9,0l-1,0l-1.3,0.2l-0.1,0l0.1,0.1l0.1,0.2l0,0.2v1.6l0,0.6v0.9l0,0.9
		L216,25l0,0.9l0,0.9l0,1.3v4l0,0.9l0,1.2v0.9V35.4z"/>
	<path class="st2" d="M245.2,43.4l-0.2-0.1l-0.1-0.2l-0.1-0.3v-1.4l0-1.5l-0.1-1.4l0.1-1.5l0-0.3l0.1-0.2l0.2-0.2l0.2-0.1l0.6,0
		l0.6,0.1l1.2,0l0.3,0l0.2-0.1l0.2-0.2l0.1-0.3l0.1-1.6l-0.2-0.9l-0.5-1.5l-0.3-0.7l-1-1.3l-0.9-1.3l-0.9-1.4l-1.9-2.6l-0.9-1.3
		l-0.9-1.3l-0.9-1.3l-1-1.3l-0.3-0.4l-0.2-0.1l-0.2,0h-0.4l-0.6,0l-1-0.2l-0.6-0.1l-0.2-0.2l-0.1-0.2l-0.1-0.8v-0.7L236,15l-0.1-1.4
		l0.1-1.5l0.1-0.3l0.2-0.2l0.3-0.1l0.2,0l1.2-0.1l0.6,0l1.8,0.1l3.5,0.1l1.8-0.1l3.6-0.3l1,0l0.8,0.1l0.3,0.1l0.1,0.1l0.1,0.4l0,0.2
		l0.2,1.6l0,1.6l0.1,1.6l-0.2,1.6l-0.3,0.1l-0.3-0.1l-0.3,0l-0.3,0.1l-0.2,0.2l-0.1,0.3l0.1,0.4l1,1.6l1,1.6l0.3,0.5l0.3,0.2h0.4
		l0.3-0.3l0.3-0.4l1-1.6l1-1.7l0.1-0.3l0-0.2l-0.2-0.2l-0.3-0.1l-0.6,0.1l-0.3-0.2l-0.2-0.7l-0.1-0.9l0.1-1.6v-1.6l0.3-1.6l0.1-0.4
		l0.2-0.1l0.2,0l1.7-0.2l1.8,0h3.5l3.6,0.1l1.7,0l1.8,0.1l0.2,0l0.2,0.1l0.2,0.3l0,0.2l0.1,0.7l0,0.7l-0.1,1.4l0.1,1.5l-0.1,1.4
		l0,0.2l-0.1,0.3l-0.2,0.1l-0.3,0.1l-0.5,0.1l-0.6,0l-1.1,0h-0.5l-0.4,0.2l-0.2,0.3l-0.6,1.1l-0.8,1.4l-0.9,1.3l-0.9,1.3l-0.8,1.3
		l-0.8,1.4l-1,1.2l-1,1.2l-1.5,2.8l-0.1,0.2l-0.1,0.3l0,1.4l0,1.3l0.1,0.3l0.2,0.3l0.3,0.2l0.3,0.1l1.1-0.1l1.1,0.1l0.3,0.1l0.2,0.1
		l0.2,0.2l0,0.3l0.1,1.4l-0.1,1.5l0.1,1.5l-0.1,1.4l0,0.2l-0.1,0.3l-0.3,0.1l-0.2,0l-1.5,0.2l-1.5,0l-3-0.3l-1.5,0l-1.5,0.1l-3-0.1
		l-1.5,0.2h-0.6l-0.9-0.1L245.2,43.4z"/>
</g>
<g>
	<g>
		<path d="M276.3,43.9V11.5c0-2,1.9-3.6,4.2-3.6h45c2.3,0,4.2,1.6,4.2,3.6v32.4c0,2-1.9,3.6-4.2,3.6h-45
			C278.2,47.5,276.3,45.9,276.3,43.9z"/>
		<path d="M325.5,8c2.3,0,4.2,1.6,4.2,3.6v32.4c0,2-1.9,3.6-4.2,3.6h-45c-2.3,0-4.2-1.6-4.2-3.6V11.5c0-2,1.9-3.6,4.2-3.6L325.5,8
			L325.5,8z M325.5,7.2h-45c-2.8,0-5.1,1.9-5.1,4.3v32.4c0,2.4,2.3,4.3,5.1,4.3h45c2.8,0,5.1-1.9,5.1-4.3V11.5
			C330.5,9.2,328.2,7.2,325.5,7.2L325.5,7.2z"/>
	</g>
	<g>
		<path class="st3" d="M277.9,26.7v-4c0-0.2,0.2-0.4,0.5-0.4h4.2c0.3,0,0.5,0.2,0.5,0.4v4c0,0.2-0.2,0.4-0.5,0.4h-4.2
			C278.1,27.2,277.9,27,277.9,26.7z"/>
		<g>
			<path class="st3" d="M282.6,22.3c0.3,0,0.5,0.2,0.5,0.4v4c0,0.2-0.2,0.4-0.5,0.4h-4.2c-0.3,0-0.5-0.2-0.5-0.4v-4
				c0-0.2,0.2-0.4,0.5-0.4H282.6L282.6,22.3z M282.6,21.5h-4.2c-0.8,0-1.4,0.5-1.4,1.2v4c0,0.7,0.6,1.2,1.4,1.2h4.2
				c0.8,0,1.4-0.5,1.4-1.2v-4C284,22,283.3,21.5,282.6,21.5L282.6,21.5z"/>
		</g>
	</g>
	<g>
		<path class="st3" d="M277.9,36.7v-4c0-0.2,0.2-0.4,0.5-0.4h4.2c0.3,0,0.5,0.2,0.5,0.4v4c0,0.2-0.2,0.4-0.5,0.4h-4.2
			C278.1,37.2,277.9,37,277.9,36.7z"/>
		<g>
			<path class="st3" d="M282.6,32.3c0.3,0,0.5,0.2,0.5,0.4v4c0,0.2-0.2,0.4-0.5,0.4h-4.2c-0.3,0-0.5-0.2-0.5-0.4v-4
				c0-0.2,0.2-0.4,0.5-0.4H282.6L282.6,32.3z M282.6,31.5h-4.2c-0.8,0-1.4,0.5-1.4,1.2v4c0,0.7,0.6,1.2,1.4,1.2h4.2
				c0.8,0,1.4-0.5,1.4-1.2v-4C284,32,283.3,31.5,282.6,31.5L282.6,31.5z"/>
		</g>
	</g>
	<g>
		<path class="st3" d="M277.9,45.6v-4c0-0.2,0.2-0.4,0.5-0.4h4.2c0.3,0,0.5,0.2,0.5,0.4v4c0,0.2-0.2,0.4-0.5,0.4h-4.2
			C278.1,46,277.9,45.8,277.9,45.6z"/>
		<g>
			<path class="st3" d="M282.6,41.1c0.3,0,0.5,0.2,0.5,0.4v4c0,0.2-0.2,0.4-0.5,0.4h-4.2c-0.3,0-0.5-0.2-0.5-0.4v-4
				c0-0.2,0.2-0.4,0.5-0.4H282.6L282.6,41.1z M282.6,40.3h-4.2c-0.8,0-1.4,0.5-1.4,1.2v4c0,0.7,0.6,1.2,1.4,1.2h4.2
				c0.8,0,1.4-0.5,1.4-1.2v-4C284,40.9,283.3,40.3,282.6,40.3L282.6,40.3z"/>
		</g>
	</g>
	<g>
		<path class="st3" d="M321.3,26.7v-4c0-0.2,0.2-0.4,0.5-0.4h4.2c0.3,0,0.5,0.2,0.5,0.4v4c0,0.2-0.2,0.4-0.5,0.4h-4.2
			C321.5,27.2,321.3,27,321.3,26.7z"/>
		<g>
			<path class="st3" d="M326,22.3c0.3,0,0.5,0.2,0.5,0.4v4c0,0.2-0.2,0.4-0.5,0.4h-4.2c-0.3,0-0.5-0.2-0.5-0.4v-4
				c0-0.2,0.2-0.4,0.5-0.4H326L326,22.3z M326,21.5h-4.2c-0.8,0-1.4,0.5-1.4,1.2v4c0,0.7,0.6,1.2,1.4,1.2h4.2c0.8,0,1.4-0.5,1.4-1.2
				v-4C327.4,22,326.8,21.5,326,21.5L326,21.5z"/>
		</g>
	</g>
	<g>
		<path class="st3" d="M321.3,36.7v-4c0-0.2,0.2-0.4,0.5-0.4h4.2c0.3,0,0.5,0.2,0.5,0.4v4c0,0.2-0.2,0.4-0.5,0.4h-4.2
			C321.5,37.2,321.3,37,321.3,36.7z"/>
		<g>
			<path class="st3" d="M326,32.3c0.3,0,0.5,0.2,0.5,0.4v4c0,0.2-0.2,0.4-0.5,0.4h-4.2c-0.3,0-0.5-0.2-0.5-0.4v-4
				c0-0.2,0.2-0.4,0.5-0.4H326L326,32.3z M326,31.5h-4.2c-0.8,0-1.4,0.5-1.4,1.2v4c0,0.7,0.6,1.2,1.4,1.2h4.2c0.8,0,1.4-0.5,1.4-1.2
				v-4C327.4,32,326.8,31.5,326,31.5L326,31.5z"/>
		</g>
	</g>
	<g>
		<path class="st3" d="M321.3,45.6v-4c0-0.2,0.2-0.4,0.5-0.4h4.2c0.3,0,0.5,0.2,0.5,0.4v4c0,0.2-0.2,0.4-0.5,0.4h-4.2
			C321.5,46,321.3,45.8,321.3,45.6z"/>
		<g>
			<path class="st3" d="M326,41.1c0.3,0,0.5,0.2,0.5,0.4v4c0,0.2-0.2,0.4-0.5,0.4h-4.2c-0.3,0-0.5-0.2-0.5-0.4v-4
				c0-0.2,0.2-0.4,0.5-0.4H326L326,41.1z M326,40.3h-4.2c-0.8,0-1.4,0.5-1.4,1.2v4c0,0.7,0.6,1.2,1.4,1.2h4.2c0.8,0,1.4-0.5,1.4-1.2
				v-4C327.4,40.9,326.8,40.3,326,40.3L326,40.3z"/>
		</g>
	</g>
	<g>
		<path class="st3" d="M321.3,17.5v-4c0-0.2,0.2-0.4,0.5-0.4h4.2c0.3,0,0.5,0.2,0.5,0.4v4c0,0.2-0.2,0.4-0.5,0.4h-4.2
			C321.5,17.9,321.3,17.7,321.3,17.5z"/>
		<g>
			<path class="st3" d="M326,13c0.3,0,0.5,0.2,0.5,0.4v4c0,0.2-0.2,0.4-0.5,0.4h-4.2c-0.3,0-0.5-0.2-0.5-0.4v-4
				c0-0.2,0.2-0.4,0.5-0.4H326L326,13z M326,12.2h-4.2c-0.8,0-1.4,0.5-1.4,1.2v4c0,0.7,0.6,1.2,1.4,1.2h4.2c0.8,0,1.4-0.5,1.4-1.2
				v-4C327.4,12.8,326.8,12.2,326,12.2L326,12.2z"/>
		</g>
	</g>
	<g>
		<path class="st3" d="M277.7,17.5v-4c0-0.2,0.2-0.4,0.5-0.4h4.2c0.3,0,0.5,0.2,0.5,0.4v4c0,0.2-0.2,0.4-0.5,0.4h-4.2
			C278,17.9,277.7,17.7,277.7,17.5z"/>
		<g>
			<path class="st3" d="M282.4,13c0.3,0,0.5,0.2,0.5,0.4v4c0,0.2-0.2,0.4-0.5,0.4h-4.2c-0.3,0-0.5-0.2-0.5-0.4v-4
				c0-0.2,0.2-0.4,0.5-0.4H282.4L282.4,13z M282.4,12.2h-4.2c-0.8,0-1.4,0.5-1.4,1.2v4c0,0.7,0.6,1.2,1.4,1.2h4.2
				c0.8,0,1.4-0.5,1.4-1.2v-4C283.8,12.8,283.2,12.2,282.4,12.2L282.4,12.2z"/>
		</g>
	</g>
	<g>
		<path class="st3" d="M295.5,21.2l0.2,13.1c0,1,1.3,1.5,2.2,1l13.3-7.3c0.9-0.5,0.9-1.7-0.1-2.1l-13.5-5.8
			C296.6,19.6,295.5,20.2,295.5,21.2z"/>
		<path class="st3" d="M300,25.2l4.6,2l-4.5,2.5L300,25.2L300,25.2z M296.9,19.9c-0.8,0-1.5,0.5-1.5,1.2l0.2,13.1
			c0,0.7,0.7,1.2,1.5,1.2c0.3,0,0.5-0.1,0.8-0.2l13.3-7.3c0.9-0.5,0.9-1.7-0.1-2.1L297.6,20C297.4,20,297.2,19.9,296.9,19.9
			L296.9,19.9z"/>
	</g>
</g>
</svg>
